<svg width="30" height="30" viewBox="0 0 30 30" fill="none" xmlns="http://www.w3.org/2000/svg">
<path d="M28.8925 0.0731753L25.718 1.51814C25.5147 1.61197 25.327 1.7402 25.1675 1.89971L19.9944 7.07594L2.17944 4.93977C1.8573 4.90224 1.53202 5.01171 1.30371 5.24315L0.312246 6.23461C-0.213196 6.76005 -0.0505593 7.6483 0.628137 7.95168L13.3951 13.6752L9.72955 17.3408H3.32728C3.0458 17.3408 2.77682 17.4534 2.57665 17.6504L2.04183 18.1884C1.51013 18.7201 1.68528 19.6177 2.37336 19.9117L7.77478 22.2262L10.0892 27.6276C10.3832 28.3157 11.284 28.4908 11.8126 27.9591L12.3505 27.4212C12.5507 27.221 12.6601 26.952 12.6601 26.6706V20.2683L16.3257 16.6027L22.0493 29.3729C22.3527 30.0515 23.2409 30.2142 23.7663 29.6888L24.7578 28.6973C24.9892 28.4659 25.0987 28.1437 25.0612 27.8216L22.9219 10.0066L28.0981 4.83034C28.2576 4.67083 28.3858 4.4863 28.4797 4.27987L29.9246 1.10533C30.2281 0.451619 29.5525 -0.227077 28.8925 0.0731753Z" fill="#2F343A"/>
</svg>
